<svg xmlns="http://www.w3.org/2000/svg" viewBox="0 0 128 128" width="128" height="128"><defs><filter id="s" x="-20%" y="-20%" width="140%" height="140%" color-interpolation-filters="sRGB">
<feMorphology in="SourceAlpha" operator="dilate" radius="3.5" result="d"/>
<feFlood flood-color="#fff"/><feComposite in2="d" operator="in" result="w"/>
<feGaussianBlur in="d" stdDeviation="2.4"/><feOffset dy="2.5" result="b"/>
<feFlood flood-color="#000" flood-opacity=".35"/><feComposite in2="b" operator="in" result="sh"/>
<feMerge><feMergeNode in="sh"/><feMergeNode in="w"/><feMergeNode in="SourceGraphic"/></feMerge>
</filter></defs><g filter="url(#s)" stroke-linejoin="round" stroke-linecap="round"><g transform="rotate(45 64 64)"><path d="M58 6h12l4 8v62H54V14z" fill="#e5e7eb" stroke="#1d1b26" stroke-width="5"/><path d="M64 14v58" stroke="#fff" stroke-width="3"/><rect x="36" y="76" width="56" height="10" rx="4" fill="#f5a524" stroke="#1d1b26" stroke-width="4.5"/><rect x="58" y="86" width="12" height="24" rx="3" fill="#92400e" stroke="#1d1b26" stroke-width="4"/><circle cx="64" cy="116" r="6" fill="#f5a524" stroke="#1d1b26" stroke-width="4"/></g><path transform="translate(24 24) scale(0.6)" d="M0-10C1-3 3-1 10 0 3 1 1 3 0 10-1 3-3 1-10 0-3-1-1-3 0-10z" fill="#fff" stroke="#1d1b26" stroke-width="3"/></g></svg>