<svg xmlns="http://www.w3.org/2000/svg" viewBox="0 0 128 128" width="128" height="128"><defs><filter id="s" x="-20%" y="-20%" width="140%" height="140%" color-interpolation-filters="sRGB">
<feMorphology in="SourceAlpha" operator="dilate" radius="3.5" result="d"/>
<feFlood flood-color="#fff"/><feComposite in2="d" operator="in" result="w"/>
<feGaussianBlur in="d" stdDeviation="2.4"/><feOffset dy="2.5" result="b"/>
<feFlood flood-color="#000" flood-opacity=".35"/><feComposite in2="b" operator="in" result="sh"/>
<feMerge><feMergeNode in="sh"/><feMergeNode in="w"/><feMergeNode in="SourceGraphic"/></feMerge>
</filter></defs><g filter="url(#s)" stroke-linejoin="round" stroke-linecap="round"><path d="M22 50L26 8l32 24zM106 50L102 8 70 32z" fill="#fb923c" stroke="#1d1b26" stroke-width="5"/><path d="M30 38l2-18 14 12zM98 38l-2-18-14 12z" fill="#f472b6"/><ellipse cx="64" cy="66" rx="46" ry="42" fill="#fb923c" stroke="#1d1b26" stroke-width="5"/><path d="M30 52a36 34 0 0 1 22-22" fill="none" stroke="#fff" stroke-opacity=".45" stroke-width="6"/><circle cx="46" cy="62" r="6" fill="#1d1b26"/><circle cx="82" cy="62" r="6" fill="#1d1b26"/><circle cx="48" cy="60" r="2" fill="#fff"/><circle cx="84" cy="60" r="2" fill="#fff"/><path d="M60 76l4 4 4-4z" fill="#f472b6" stroke="#1d1b26" stroke-width="3"/><path d="M64 80q-6 8-12 4M64 80q6 8 12 4" fill="none" stroke="#1d1b26" stroke-width="3.5"/><path d="M18 70h20M18 80l20-4M110 70H90M110 80l-20-4" stroke="#1d1b26" stroke-width="3"/><ellipse cx="34" cy="78" rx="7" ry="4.5" fill="#f472b6" opacity=".7"/><ellipse cx="94" cy="78" rx="7" ry="4.5" fill="#f472b6" opacity=".7"/></g></svg>