<svg xmlns="http://www.w3.org/2000/svg" viewBox="0 0 128 128" width="128" height="128"><defs><filter id="s" x="-20%" y="-20%" width="140%" height="140%" color-interpolation-filters="sRGB">
<feMorphology in="SourceAlpha" operator="dilate" radius="3.5" result="d"/>
<feFlood flood-color="#fff"/><feComposite in2="d" operator="in" result="w"/>
<feGaussianBlur in="d" stdDeviation="2.4"/><feOffset dy="2.5" result="b"/>
<feFlood flood-color="#000" flood-opacity=".35"/><feComposite in2="b" operator="in" result="sh"/>
<feMerge><feMergeNode in="sh"/><feMergeNode in="w"/><feMergeNode in="SourceGraphic"/></feMerge>
</filter></defs><g filter="url(#s)" stroke-linejoin="round" stroke-linecap="round"><g transform="translate(6 2) scale(.9)"><path d="M22 72V60a42 42 0 0 1 84 0v12" fill="none" stroke="#1d1b26" stroke-width="15"/><path d="M22 72V60a42 42 0 0 1 84 0v12" fill="none" stroke="#475569" stroke-width="8"/><rect x="10" y="60" width="28" height="42" rx="12" fill="#ef4444" stroke="#1d1b26" stroke-width="5"/><rect x="90" y="60" width="28" height="42" rx="12" fill="#ef4444" stroke="#1d1b26" stroke-width="5"/><path d="M24 100c0 14 12 20 30 20" fill="none" stroke="#1d1b26" stroke-width="9"/><path d="M24 100c0 14 12 20 30 20" fill="none" stroke="#475569" stroke-width="4"/><rect x="52" y="113" width="18" height="12" rx="6" fill="#1d1b26"/><path d="M16 70v22M96 70v22" stroke="#fff" stroke-opacity=".55" stroke-width="4"/></g></g></svg>