<svg xmlns="http://www.w3.org/2000/svg" viewBox="0 0 128 128" width="128" height="128"><defs><filter id="s" x="-20%" y="-20%" width="140%" height="140%" color-interpolation-filters="sRGB">
<feMorphology in="SourceAlpha" operator="dilate" radius="3.5" result="d"/>
<feFlood flood-color="#fff"/><feComposite in2="d" operator="in" result="w"/>
<feGaussianBlur in="d" stdDeviation="2.4"/><feOffset dy="2.5" result="b"/>
<feFlood flood-color="#000" flood-opacity=".35"/><feComposite in2="b" operator="in" result="sh"/>
<feMerge><feMergeNode in="sh"/><feMergeNode in="w"/><feMergeNode in="SourceGraphic"/></feMerge>
</filter></defs><g filter="url(#s)" stroke-linejoin="round" stroke-linecap="round"><polygon points="64.0,6.0 78.4,22.5 100.0,19.1 100.4,41.0 119.1,52.3 105.4,69.3 112.5,90.0 91.0,94.2 83.2,114.6 64.0,104.0 44.8,114.6 37.0,94.2 15.5,90.0 22.6,69.3 8.9,52.3 27.6,41.0 28.0,19.1 49.6,22.5" fill="#8b5cf6" stroke="#1d1b26" stroke-width="5"/><text x="64" y="80" text-anchor="middle" font-family="'Arial Black','Segoe UI Black','Helvetica Neue',Impact,system-ui,sans-serif" font-weight="900" font-size="46" fill="#ffffff" stroke="#1d1b26" stroke-width="7" paint-order="stroke" letter-spacing="0.5">OP</text><path transform="translate(110 18) scale(0.7)" d="M0-10C1-3 3-1 10 0 3 1 1 3 0 10-1 3-3 1-10 0-3-1-1-3 0-10z" fill="#ffc83d" stroke="#1d1b26" stroke-width="3"/></g></svg>