<svg xmlns="http://www.w3.org/2000/svg" viewBox="0 0 128 128" width="128" height="128"><defs><filter id="s" x="-20%" y="-20%" width="140%" height="140%" color-interpolation-filters="sRGB">
<feMorphology in="SourceAlpha" operator="dilate" radius="3.5" result="d"/>
<feFlood flood-color="#fff"/><feComposite in2="d" operator="in" result="w"/>
<feGaussianBlur in="d" stdDeviation="2.4"/><feOffset dy="2.5" result="b"/>
<feFlood flood-color="#000" flood-opacity=".35"/><feComposite in2="b" operator="in" result="sh"/>
<feMerge><feMergeNode in="sh"/><feMergeNode in="w"/><feMergeNode in="SourceGraphic"/></feMerge>
</filter></defs><g filter="url(#s)" stroke-linejoin="round" stroke-linecap="round"><path d="M24 44L22 12l28 18zM104 44l2-32-28 18z" fill="#f9a8d4" stroke="#1d1b26" stroke-width="5"/><ellipse cx="64" cy="66" rx="46" ry="42" fill="#f9a8d4" stroke="#1d1b26" stroke-width="5"/><path d="M30 52a36 34 0 0 1 22-22" fill="none" stroke="#fff" stroke-opacity=".45" stroke-width="6"/><ellipse cx="64" cy="80" rx="20" ry="14" fill="#f472b6" stroke="#1d1b26" stroke-width="4.5"/><ellipse cx="57" cy="80" rx="3.5" ry="5" fill="#1d1b26"/><ellipse cx="71" cy="80" rx="3.5" ry="5" fill="#1d1b26"/><circle cx="46" cy="56" r="6" fill="#1d1b26"/><circle cx="82" cy="56" r="6" fill="#1d1b26"/><circle cx="48" cy="54" r="2" fill="#fff"/><circle cx="84" cy="54" r="2" fill="#fff"/><ellipse cx="34" cy="72" rx="7" ry="4.5" fill="#ef4444" opacity=".7"/><ellipse cx="94" cy="72" rx="7" ry="4.5" fill="#ef4444" opacity=".7"/></g></svg>