<svg xmlns="http://www.w3.org/2000/svg" viewBox="0 0 128 128" width="128" height="128"><defs><filter id="s" x="-20%" y="-20%" width="140%" height="140%" color-interpolation-filters="sRGB">
<feMorphology in="SourceAlpha" operator="dilate" radius="3.5" result="d"/>
<feFlood flood-color="#fff"/><feComposite in2="d" operator="in" result="w"/>
<feGaussianBlur in="d" stdDeviation="2.4"/><feOffset dy="2.5" result="b"/>
<feFlood flood-color="#000" flood-opacity=".35"/><feComposite in2="b" operator="in" result="sh"/>
<feMerge><feMergeNode in="sh"/><feMergeNode in="w"/><feMergeNode in="SourceGraphic"/></feMerge>
</filter></defs><g filter="url(#s)" stroke-linejoin="round" stroke-linecap="round"><path d="M76 4l-8 30" stroke="#1d1b26" stroke-width="10"/><path d="M76 4l-8 30" stroke="#22d3ee" stroke-width="5"/><path d="M36 26h56l-4 8v72l4 8H36l4-8V34z" fill="#ef4444" stroke="#1d1b26" stroke-width="5"/><ellipse cx="64" cy="26" rx="28" ry="6" fill="#d1d5db" stroke="#1d1b26" stroke-width="4.5"/><path d="M40 62c10-8 20 8 30 0s14-6 18-4v18c-6-2-10 6-18 4s-20-12-30-4z" fill="#fff"/><path d="M48 40v58" stroke="#fff" stroke-opacity=".5" stroke-width="5"/><circle cx="104" cy="50" r="5" fill="#fff" stroke="#1d1b26" stroke-width="3"/><circle cx="112" cy="70" r="3.5" fill="#fff" stroke="#1d1b26" stroke-width="3"/><circle cx="20" cy="60" r="4" fill="#fff" stroke="#1d1b26" stroke-width="3"/></g></svg>