<svg xmlns="http://www.w3.org/2000/svg" viewBox="0 0 128 128" width="128" height="128"><defs><filter id="s" x="-20%" y="-20%" width="140%" height="140%" color-interpolation-filters="sRGB">
<feMorphology in="SourceAlpha" operator="dilate" radius="3.5" result="d"/>
<feFlood flood-color="#fff"/><feComposite in2="d" operator="in" result="w"/>
<feGaussianBlur in="d" stdDeviation="2.4"/><feOffset dy="2.5" result="b"/>
<feFlood flood-color="#000" flood-opacity=".35"/><feComposite in2="b" operator="in" result="sh"/>
<feMerge><feMergeNode in="sh"/><feMergeNode in="w"/><feMergeNode in="SourceGraphic"/></feMerge>
</filter></defs><g filter="url(#s)" stroke-linejoin="round" stroke-linecap="round"><g transform="rotate(-18 64 60)"><circle cx="64" cy="62" r="40" fill="#fb7155" stroke="#1d1b26" stroke-width="5"/><path d="M38 48a28 28 0 0 1 22 -18" fill="none" stroke="#fff" stroke-opacity=".55" stroke-width="6"/><path d="M38 52l14 6M90 52l-14 6" stroke="#1d1b26" stroke-width="5.5"/><circle cx="48" cy="64" r="5" fill="#1d1b26"/><circle cx="80" cy="64" r="5" fill="#1d1b26"/><path d="M50 84q14-8 28 0" fill="none" stroke="#1d1b26" stroke-width="5"/></g><path d="M100 10l6 10 10-4-4 10 10 6-10 4 2 10-10-6" fill="none" stroke="#ffc83d" stroke-width="4"/><g transform="rotate(6 64 110)"><rect x="27.0" y="95" width="74" height="28" rx="10" fill="#1d1b26" stroke="#1d1b26" stroke-width="5"/><text x="64" y="117" text-anchor="middle" font-family="'Arial Black','Segoe UI Black','Helvetica Neue',Impact,system-ui,sans-serif" font-weight="900" font-size="20" fill="#ffffff" stroke="#1d1b26" stroke-width="5" paint-order="stroke" letter-spacing="0.5">TILT</text></g></g></svg>